<svg width="40" height="39" viewBox="0 0 40 39" fill="none" xmlns="http://www.w3.org/2000/svg">
<g id="Frame">
<g id="Group">
<path id="Vector" d="M38.125 11.0654H34.375C34.2092 11.0654 34.0503 11.1292 33.9331 11.2428C33.8158 11.3564 33.75 11.5105 33.75 11.6711V34.6878C33.75 34.8485 33.8158 35.0025 33.9331 35.1161C34.0503 35.2297 34.2092 35.2935 34.375 35.2935H38.125C38.2908 35.2935 38.4497 35.2297 38.5669 35.1161C38.6842 35.0025 38.75 34.8485 38.75 34.6878V11.6711C38.75 11.5105 38.6842 11.3564 38.5669 11.2428C38.4497 11.1292 38.2908 11.0654 38.125 11.0654ZM37.5 34.0821H35V12.2768H37.5V34.0821ZM31.875 35.2935C32.0408 35.2935 32.1997 35.2297 32.3169 35.1161C32.4342 35.0025 32.5 34.8485 32.5 34.6878V16.5167C32.5 16.3561 32.4342 16.202 32.3169 16.0884C32.1997 15.9748 32.0408 15.911 31.875 15.911H28.125C27.9592 15.911 27.8003 15.9748 27.6831 16.0884C27.5658 16.202 27.5 16.3561 27.5 16.5167V34.6878C27.5 34.8485 27.5658 35.0025 27.6831 35.1161C27.8003 35.2297 27.9592 35.2935 28.125 35.2935H31.875ZM28.75 17.1224H31.25V34.0821H28.75V17.1224ZM25.625 35.2935C25.7908 35.2935 25.9497 35.2297 26.0669 35.1161C26.1842 35.0025 26.25 34.8485 26.25 34.6878V20.7566C26.25 20.596 26.1842 20.4419 26.0669 20.3283C25.9497 20.2148 25.7908 20.1509 25.625 20.1509H21.875C21.7092 20.1509 21.5503 20.2148 21.4331 20.3283C21.3158 20.4419 21.25 20.596 21.25 20.7566V34.6878C21.25 34.8485 21.3158 35.0025 21.4331 35.1161C21.5503 35.2297 21.7092 35.2935 21.875 35.2935H25.625ZM22.5 21.3623H25V34.0821H22.5V21.3623ZM19.375 35.2935C19.5408 35.2935 19.6997 35.2297 19.8169 35.1161C19.9342 35.0025 20 34.8485 20 34.6878V25.6023C20 25.4416 19.9342 25.2876 19.8169 25.174C19.6997 25.0604 19.5408 24.9966 19.375 24.9966H15.625C15.4592 24.9966 15.3003 25.0604 15.1831 25.174C15.0658 25.2876 15 25.4416 15 25.6023V34.6878C15 34.8485 15.0658 35.0025 15.1831 35.1161C15.3003 35.2297 15.4592 35.2935 15.625 35.2935H19.375ZM16.25 26.208H18.75V34.0821H16.25V26.208ZM13.125 35.2935C13.2908 35.2935 13.4497 35.2297 13.5669 35.1161C13.6842 35.0025 13.75 34.8485 13.75 34.6878V28.0251C13.75 27.8644 13.6842 27.7104 13.5669 27.5968C13.4497 27.4832 13.2908 27.4194 13.125 27.4194H9.375C9.20924 27.4194 9.05027 27.4832 8.93306 27.5968C8.81585 27.7104 8.75 27.8644 8.75 28.0251V34.6878C8.75 34.8485 8.81585 35.0025 8.93306 35.1161C9.05027 35.2297 9.20924 35.2935 9.375 35.2935H13.125ZM10 28.6308H12.5V34.0821H10V28.6308ZM6.875 35.2935C7.04076 35.2935 7.19973 35.2297 7.31694 35.1161C7.43415 35.0025 7.5 34.8485 7.5 34.6878V31.0536C7.5 30.893 7.43415 30.7389 7.31694 30.6253C7.19973 30.5117 7.04076 30.4479 6.875 30.4479H3.125C2.95924 30.4479 2.80027 30.5117 2.68306 30.6253C2.56585 30.7389 2.5 30.893 2.5 31.0536V34.6878C2.5 34.8485 2.56585 35.0025 2.68306 35.1161C2.80027 35.2297 2.95924 35.2935 3.125 35.2935H6.875ZM3.75 31.6593H6.25V34.0821H3.75V31.6593ZM16.875 11.0654H18.125C18.2908 11.0654 18.4497 11.0016 18.5669 10.888C18.6842 10.7744 18.75 10.6203 18.75 10.4597C18.75 10.299 18.6842 10.145 18.5669 10.0314C18.4497 9.9178 18.2908 9.85398 18.125 9.85398H17.5V9.24828C17.5 9.08764 17.4342 8.93358 17.3169 8.81998C17.1997 8.70639 17.0408 8.64258 16.875 8.64258C16.7092 8.64258 16.5503 8.70639 16.4331 8.81998C16.3158 8.93358 16.25 9.08764 16.25 9.24828V9.95817C15.8332 10.1012 15.4819 10.3823 15.2583 10.752C15.0346 11.1217 14.953 11.556 15.0278 11.9784C15.1025 12.4007 15.3289 12.7839 15.6669 13.0602C16.0049 13.3364 16.4328 13.488 16.875 13.4882C17.0408 13.4882 17.1997 13.552 17.3169 13.6656C17.4342 13.7792 17.5 13.9333 17.5 14.0939C17.5 14.2545 17.4342 14.4086 17.3169 14.5222C17.1997 14.6358 17.0408 14.6996 16.875 14.6996H15.625C15.4592 14.6996 15.3003 14.7634 15.1831 14.877C15.0658 14.9906 15 15.1447 15 15.3053C15 15.466 15.0658 15.62 15.1831 15.7336C15.3003 15.8472 15.4592 15.911 15.625 15.911H16.25V16.5167C16.25 16.6774 16.3158 16.8314 16.4331 16.945C16.5503 17.0586 16.7092 17.1224 16.875 17.1224C17.0408 17.1224 17.1997 17.0586 17.3169 16.945C17.4342 16.8314 17.5 16.6774 17.5 16.5167V15.8068C17.9168 15.6638 18.2681 15.3827 18.4917 15.013C18.7154 14.6433 18.797 14.209 18.7222 13.7866C18.6475 13.3643 18.4211 12.9811 18.0831 12.7048C17.7451 12.4286 17.3172 12.277 16.875 12.2768C16.7092 12.2768 16.5503 12.213 16.4331 12.0994C16.3158 11.9858 16.25 11.8317 16.25 11.6711C16.25 11.5105 16.3158 11.3564 16.4331 11.2428C16.5503 11.1292 16.7092 11.0654 16.875 11.0654Z" fill="#029A4D"/>
<path id="Vector_2" d="M38.125 3.79688H34.375C34.2093 3.79688 34.0503 3.86069 33.9331 3.97428C33.8159 4.08787 33.75 4.24194 33.75 4.40258C33.75 4.56322 33.8159 4.71728 33.9331 4.83088C34.0503 4.94447 34.2093 5.00828 34.375 5.00828H36.6161L27.8661 13.4881H24.3488C24.3661 13.2867 24.3749 13.0846 24.375 12.8824C24.375 11.5021 23.9694 10.1504 23.2057 8.98534C22.442 7.82026 21.3518 6.89 20.0626 6.30337C18.7734 5.71674 17.3384 5.498 15.9256 5.67272C14.5128 5.84744 13.1806 6.40841 12.0847 7.29001C10.9888 8.1716 10.1746 9.33738 9.73729 10.651C9.29999 11.9646 9.25768 13.3717 9.6153 14.7078C9.97293 16.0438 10.7157 17.2536 11.7568 18.1955C12.7978 19.1375 14.0941 19.7727 15.494 20.0268L12.8662 22.5737H8.12502C8.04294 22.5737 7.96166 22.5893 7.88583 22.6198C7.81 22.6502 7.7411 22.6948 7.68306 22.7511L1.43306 28.8081C1.31585 28.9217 1.25 29.0758 1.25 29.2364C1.25 29.3971 1.31585 29.5511 1.43306 29.6647C1.55028 29.7783 1.70925 29.8421 1.87502 29.8421C2.04078 29.8421 2.19976 29.7783 2.31697 29.6647L8.38384 23.7851H13.125C13.2071 23.7851 13.2884 23.7694 13.3642 23.739C13.44 23.7085 13.5089 23.6639 13.567 23.6077L17.1391 20.1459C18.755 20.0886 20.3088 19.5277 21.5696 18.5466C22.8304 17.5654 23.7311 16.2162 24.1378 14.6995H28.125C28.2071 14.6995 28.2884 14.6839 28.3642 14.6534C28.44 14.623 28.5089 14.5784 28.567 14.5221L37.5 5.8649V8.0368C37.5 8.19744 37.5659 8.3515 37.6831 8.46509C37.8003 8.57869 37.9593 8.6425 38.125 8.6425C38.2908 8.6425 38.4497 8.57869 38.567 8.46509C38.6842 8.3515 38.75 8.19744 38.75 8.0368V4.40258C38.75 4.24194 38.6842 4.08787 38.567 3.97428C38.4497 3.86069 38.2908 3.79688 38.125 3.79688ZM16.875 18.9395C15.6389 18.9395 14.4305 18.5842 13.4027 17.9187C12.3749 17.2531 11.5738 16.3071 11.1008 15.2003C10.6277 14.0936 10.504 12.8757 10.7451 11.7008C10.9863 10.5258 11.5815 9.44655 12.4556 8.59945C13.3297 7.75236 14.4433 7.17549 15.6557 6.94178C16.8681 6.70806 18.1247 6.82801 19.2668 7.28646C20.4088 7.7449 21.3849 8.52124 22.0717 9.51732C22.7585 10.5134 23.125 11.6845 23.125 12.8824C23.1231 14.4883 22.4641 16.0279 21.2924 17.1634C20.1207 18.2989 18.532 18.9376 16.875 18.9395Z" fill="#029A4D"/>
</g>
</g>
</svg>
