<svg width="81" height="81" viewBox="0 0 81 81" fill="none" xmlns="http://www.w3.org/2000/svg">
<g id="clarity:language-solid" clip-path="url(#clip0_598_2385)">
<path id="Vector" d="M24.75 37.125L22.5 44.1H27L24.75 37.125Z" fill="#029A4D"/>
<path id="Vector_2" d="M68.1748 6.75H32.1748V18H41.1748V22.5H11.9248C8.09981 22.5 5.1748 25.425 5.1748 29.25V54C5.1748 57.825 8.09981 60.75 11.9248 60.75H14.1748V72.225L28.3498 60.75H43.4248V45H68.1748C71.9998 45 74.9248 42.075 74.9248 38.25V13.5C74.9248 9.675 71.9998 6.75 68.1748 6.75ZM29.4748 51.525L28.3498 47.925H21.3748L20.0248 51.525H14.6248L22.0498 31.5H27.4498L34.8748 51.525H29.4748ZM63.6748 33.75V38.25C60.7498 38.25 57.5998 37.35 54.8998 36C52.1998 37.35 49.0498 38.025 45.8998 38.25L45.6748 33.75C47.2498 33.75 48.8248 33.525 50.3998 33.075C48.3748 31.05 47.0248 28.575 46.3498 25.875H51.0748C51.7498 27.9 53.0998 29.475 54.6748 30.825C57.1498 28.8 58.7248 25.875 58.9498 22.5H45.4498V18H52.1998V13.5H56.6998V18H64.1248L64.3498 20.25C64.5748 24.975 62.7748 29.7 59.3998 33.075C60.9748 33.525 62.3248 33.75 63.6748 33.75Z" fill="#029A4D"/>
</g>
<defs>
<clipPath id="clip0_598_2385">
<rect width="81" height="81" fill="white"/>
</clipPath>
</defs>
</svg>
