<svg width="70" height="70" viewBox="0 0 70 70" fill="none" xmlns="http://www.w3.org/2000/svg">
<g id="arcticons:rakuten-link-supporter">
<path id="Vector" d="M35.0002 53.2291C45.0679 53.2291 53.2293 45.0676 53.2293 34.9999C53.2293 24.9322 45.0679 16.7708 35.0002 16.7708C24.9325 16.7708 16.771 24.9322 16.771 34.9999C16.771 45.0676 24.9325 53.2291 35.0002 53.2291Z" stroke="#029A4D" stroke-width="2.2" stroke-linecap="round" stroke-linejoin="round"/>
<path id="Vector_2" d="M27.9357 4.45239L18.3938 8.40448L20.3305 15.5459C18.5224 16.912 16.9126 18.5223 15.5472 20.3307L8.40569 18.3941L4.45215 27.9359L10.8149 31.5847C10.6535 32.7173 10.5728 33.8558 10.5728 35.0001C10.5728 36.1434 10.6535 37.2819 10.8149 38.4155L4.45215 42.0643L8.40423 51.6061L15.5457 49.6695C16.9117 51.4775 18.522 53.0873 20.3305 54.4528L18.3938 61.5943L27.9357 65.5478L31.5844 59.1851C32.7171 59.3455 33.8556 59.4262 34.9999 59.4272C36.1432 59.4272 37.2817 59.3465 38.4153 59.1851L42.064 65.5478L51.6059 61.5957L49.6692 54.4543C51.4773 53.0882 53.0871 51.4779 54.4526 49.6695L61.594 51.6061L65.5476 42.0643L59.1849 38.4155C59.3453 37.2819 59.426 36.1434 59.4269 35.0001C59.4241 33.8573 59.3422 32.7162 59.1819 31.5847L65.5476 27.9359L61.5955 18.3941L54.5138 20.3147C53.1379 18.4883 51.5131 16.8635 49.6867 15.4876L51.6059 8.40593L42.064 4.45239L38.4153 10.818C37.2838 10.6577 36.1426 10.5759 34.9999 10.573C33.8556 10.573 32.7171 10.6537 31.5844 10.8151L27.9357 4.45239Z" stroke="#029A4D" stroke-width="2.2" stroke-linecap="round" stroke-linejoin="round"/>
<path id="Vector_3" d="M28.7293 29.7398L25.1477 24.7173M40.2604 41.2723L45.2829 44.8525M27.3454 22.7471L31.2173 28C26.66 30.9517 25.5443 31.7727 31.8852 38.115C38.2289 44.4573 39.0485 43.3402 42.0002 38.7844L47.2531 42.6548C39.5691 52.8923 31.3835 43.1739 29.1041 40.896C26.8262 38.6167 17.1079 30.431 27.3454 22.7471Z" stroke="#029A4D" stroke-width="2.2" stroke-linecap="round" stroke-linejoin="round"/>
</g>
</svg>
