<svg width="40" height="39" viewBox="0 0 40 39" fill="none" xmlns="http://www.w3.org/2000/svg">
<path d="M38.0676 10.2056H27.7795C27.1016 10.2056 26.5502 10.74 26.5502 11.3969V17.7102C26.5502 18.3671 27.1016 18.9015 27.7795 18.9015H30.7976C30.9512 20.2177 30.2847 20.9882 30.2562 21.0203C30.1822 21.1009 30.1354 21.2014 30.1219 21.3084C30.1084 21.4154 30.1289 21.5238 30.1806 21.6193C30.2324 21.7147 30.313 21.7925 30.4116 21.8424C30.5102 21.8923 30.6222 21.9119 30.7326 21.8985C32.6594 21.665 33.6023 20.7326 34.0541 19.9915C34.2601 19.653 34.4099 19.2851 34.4978 18.9014H38.0675C38.7454 18.9014 39.2968 18.367 39.2968 17.7101V11.3969C39.2969 10.74 38.7454 10.2056 38.0676 10.2056ZM38.2031 17.7102C38.2031 17.7813 38.141 17.8415 38.0676 17.8415H34.024C33.8809 17.8416 33.7435 17.8959 33.6413 17.9929C33.5391 18.0899 33.4802 18.2219 33.4772 18.3606C33.4771 18.3656 33.4566 18.8876 33.1123 19.4524C32.7999 19.9649 32.328 20.3431 31.7029 20.5834C31.9006 20.0003 32.0154 19.211 31.7917 18.2544C31.7643 18.1372 31.6966 18.0324 31.5997 17.9574C31.5028 17.8824 31.3824 17.8415 31.2584 17.8415H27.7794C27.7059 17.8415 27.6438 17.7813 27.6438 17.7102V11.3969C27.6438 11.3258 27.7059 11.2656 27.7794 11.2656H38.0675C38.1409 11.2656 38.203 11.3258 38.203 11.3969V17.7102H38.2031ZM22.167 23.7483C22.167 25.7019 23.807 27.2912 25.8228 27.2912C27.8386 27.2912 29.4786 25.7019 29.4786 23.7483C29.4786 21.795 27.8386 20.2058 25.8228 20.2058C23.807 20.2058 22.167 21.795 22.167 23.7483ZM25.8228 21.2658C27.2355 21.2658 28.3848 22.3795 28.3848 23.7483C28.3848 25.1174 27.2355 26.2312 25.8228 26.2312C24.4101 26.2312 23.2608 25.1174 23.2608 23.7483C23.2608 22.3795 24.4102 21.2658 25.8228 21.2658ZM25.8228 27.9675C21.8122 27.9675 18.5492 31.1295 18.5492 35.0161C18.5492 35.7664 18.976 36.8131 21.0091 37.5385C22.2881 37.9948 23.9975 38.2462 25.8226 38.2462C29.4429 38.2462 33.0959 37.2474 33.0959 35.0161C33.0959 31.1295 29.8333 27.9675 25.8228 27.9675ZM25.8226 37.1862C22.3574 37.1862 19.643 36.233 19.643 35.0161C19.643 31.714 22.4152 29.0275 25.8228 29.0275C29.2302 29.0275 32.0022 31.714 32.0022 35.0161C32.0022 36.233 29.2878 37.1862 25.8226 37.1862ZM20.2666 20.2617C20.2666 19.2007 19.3759 18.3375 18.2811 18.3375C17.3759 18.3375 16.6109 18.9277 16.3728 19.7317H15.704V17.6103H17.4568C17.6018 17.6103 17.7409 17.5545 17.8435 17.4551C17.9461 17.3557 18.0037 17.2209 18.0037 17.0803V13.3533H21.5312C21.7694 14.1573 22.5345 14.7475 23.4395 14.7475C24.5343 14.7475 25.425 13.8843 25.425 12.8233C25.425 11.7622 24.5343 10.8991 23.4395 10.8991C22.5344 10.8991 21.7694 11.4893 21.5312 12.2933H18.0037V8.56618C18.0037 8.42562 17.9461 8.29081 17.8435 8.19142C17.7409 8.09203 17.6018 8.03619 17.4568 8.03619H15.704V5.91487H16.3728C16.6109 6.71886 17.376 7.30904 18.2811 7.30904C19.3759 7.30904 20.2666 6.44584 20.2666 5.3848C20.2666 4.32376 19.3759 3.46063 18.2811 3.46063C17.3759 3.46063 16.6109 4.05089 16.3727 4.85489H15.1571C15.0121 4.85489 14.873 4.91072 14.7704 5.01012C14.6679 5.10951 14.6102 5.24431 14.6102 5.38488V8.03627H13.6109V4.6176C14.4405 4.38683 15.0496 3.64537 15.0496 2.76816C15.0496 1.7072 14.1589 0.843994 13.0641 0.843994C11.9694 0.843994 11.0786 1.70712 11.0786 2.76809C11.0786 3.64522 11.6876 4.38668 12.5172 4.61753V8.03619H11.5179V5.38488C11.5179 5.24431 11.4603 5.10951 11.3577 5.01012C11.2552 4.91072 11.1161 4.85489 10.971 4.85489H9.75539C9.51727 4.05089 8.75227 3.46063 7.84711 3.46063C6.75227 3.46063 5.86156 4.32376 5.86156 5.3848C5.86156 6.44584 6.75227 7.30904 7.84711 7.30904C8.75219 7.30904 9.51719 6.71886 9.75539 5.91487H10.4242V8.03627H8.67141C8.52637 8.03627 8.38727 8.0921 8.28471 8.1915C8.18215 8.29089 8.12453 8.42569 8.12453 8.56626V12.2934H4.59687C4.35875 11.4893 3.59375 10.8991 2.68867 10.8991C1.59383 10.8991 0.703125 11.7623 0.703125 12.8233C0.703125 13.8843 1.59383 14.7475 2.68867 14.7475C3.59375 14.7475 4.35883 14.1573 4.59695 13.3533H8.12453V15.6594H2.68867C2.54363 15.6594 2.40453 15.7153 2.30197 15.8146C2.19941 15.914 2.1418 16.0488 2.1418 16.1894V28.0242C1.31211 28.2551 0.703125 28.9965 0.703125 29.8737C0.703125 30.9347 1.59383 31.7979 2.68867 31.7979C3.78344 31.7979 4.67414 30.9347 4.67414 29.8737C4.67414 28.9965 4.06516 28.2551 3.23555 28.0242V16.7194H8.12453V17.0804C8.12453 17.221 8.18215 17.3558 8.28471 17.4552C8.38727 17.5546 8.52637 17.6104 8.67141 17.6104H10.4242V19.7318H9.75539C9.51727 18.9278 8.75219 18.3376 7.84711 18.3376C6.75227 18.3376 5.86156 19.2007 5.86156 20.2618C5.86156 21.3228 6.75227 22.1859 7.84711 22.1859C8.75219 22.1859 9.51727 21.5958 9.75539 20.7918H10.9711C11.1161 20.7918 11.2552 20.7359 11.3578 20.6365C11.4604 20.5371 11.518 20.4023 11.518 20.2618V17.6104H12.5173V21.0291C11.6877 21.2598 11.0787 22.0012 11.0787 22.8784C11.0787 23.9395 11.9694 24.8026 13.0641 24.8026C14.159 24.8026 15.0497 23.9395 15.0497 22.8784C15.0497 22.0012 14.4407 21.2598 13.611 21.0291V17.6104H14.6103V20.2618C14.6103 20.4023 14.6679 20.5371 14.7705 20.6365C14.873 20.7359 15.0121 20.7918 15.1572 20.7918H16.3729C16.611 21.5958 17.3761 22.1859 18.2812 22.1859C19.3759 22.1859 20.2666 21.3227 20.2666 20.2617ZM23.4395 11.9591C23.9312 11.9591 24.3312 12.3468 24.3312 12.8233C24.3312 13.2998 23.9312 13.6875 23.4395 13.6875C22.9478 13.6875 22.5477 13.2998 22.5477 12.8233C22.5477 12.3468 22.9478 11.9591 23.4395 11.9591ZM18.2811 4.52061C18.7728 4.52061 19.1729 4.90826 19.1729 5.3848C19.1729 5.86134 18.7728 6.24906 18.2811 6.24906C17.7894 6.24906 17.3893 5.86134 17.3893 5.3848C17.3893 4.90826 17.7894 4.52061 18.2811 4.52061ZM12.1723 2.76816C12.1723 2.2917 12.5724 1.90405 13.0641 1.90405C13.5559 1.90405 13.9559 2.2917 13.9559 2.76816C13.9559 3.2447 13.5559 3.63242 13.0641 3.63242C12.5724 3.63242 12.1723 3.2447 12.1723 2.76816ZM7.84711 6.24906C7.35539 6.24906 6.95531 5.86134 6.95531 5.3848C6.95531 4.90826 7.35539 4.52061 7.84711 4.52061C8.33883 4.52061 8.73883 4.90826 8.73883 5.3848C8.73883 5.86134 8.33883 6.24906 7.84711 6.24906ZM2.68867 13.6875C2.19695 13.6875 1.79688 13.2998 1.79688 12.8233C1.79688 12.3468 2.19695 11.9591 2.68867 11.9591C3.18039 11.9591 3.58039 12.3468 3.58039 12.8233C3.58039 13.2998 3.18031 13.6875 2.68867 13.6875ZM3.58039 29.8737C3.58039 30.3502 3.18039 30.7379 2.68867 30.7379C2.19695 30.7379 1.79688 30.3502 1.79688 29.8737C1.79688 29.3971 2.19695 29.0094 2.68867 29.0094C3.18039 29.0094 3.58039 29.3972 3.58039 29.8737ZM7.84711 21.1259C7.35539 21.1259 6.95531 20.7382 6.95531 20.2617C6.95531 19.7852 7.35539 19.3975 7.84711 19.3975C8.33883 19.3975 8.73883 19.7852 8.73883 20.2617C8.73883 20.7382 8.33883 21.1259 7.84711 21.1259ZM13.9559 22.8784C13.9559 23.355 13.5558 23.7426 13.0641 23.7426C12.5723 23.7426 12.1723 23.355 12.1723 22.8784C12.1723 22.4019 12.5723 22.0142 13.0641 22.0142C13.5558 22.0142 13.9559 22.4019 13.9559 22.8784ZM9.21828 9.09625H16.91V16.5504H9.21828V9.09625ZM18.2811 21.1259C17.7894 21.1259 17.3893 20.7382 17.3893 20.2617C17.3893 19.7852 17.7894 19.3975 18.2811 19.3975C18.7728 19.3975 19.1729 19.7852 19.1729 20.2617C19.1729 20.7382 18.7728 21.1259 18.2811 21.1259ZM37.1047 14.5536C37.1047 14.6941 37.0471 14.8289 36.9445 14.9283C36.842 15.0277 36.7029 15.0835 36.5578 15.0835H29.2891C29.144 15.0835 29.0049 15.0277 28.9024 14.9283C28.7998 14.8289 28.7422 14.6941 28.7422 14.5536C28.7422 14.413 28.7998 14.2782 28.9024 14.1788C29.0049 14.0794 29.144 14.0236 29.2891 14.0236H36.5578C36.7029 14.0236 36.842 14.0794 36.9445 14.1788C37.0471 14.2782 37.1047 14.413 37.1047 14.5536ZM37.1047 12.613C37.1047 12.7535 37.0471 12.8883 36.9445 12.9877C36.842 13.0871 36.7029 13.143 36.5578 13.143H29.2891C29.2172 13.143 29.1461 13.1292 29.0798 13.1026C29.0134 13.076 28.9531 13.0369 28.9024 12.9877C28.8516 12.9385 28.8113 12.8801 28.7838 12.8158C28.7563 12.7515 28.7422 12.6826 28.7422 12.613C28.7422 12.5434 28.7563 12.4744 28.7838 12.4101C28.8113 12.3458 28.8516 12.2874 28.9024 12.2382C28.9531 12.189 29.0134 12.1499 29.0798 12.1233C29.1461 12.0967 29.2172 12.083 29.2891 12.083H36.5578C36.7029 12.083 36.842 12.1388 36.9445 12.2382C37.0471 12.3376 37.1047 12.4724 37.1047 12.613ZM37.1047 16.4942C37.1047 16.6347 37.0471 16.7695 36.9445 16.8689C36.842 16.9683 36.7029 17.0241 36.5578 17.0241H29.2891C29.144 17.0241 29.0049 16.9683 28.9024 16.8689C28.7998 16.7695 28.7422 16.6347 28.7422 16.4942C28.7422 16.3536 28.7998 16.2188 28.9024 16.1194C29.0049 16.02 29.144 15.9642 29.2891 15.9642H36.5578C36.8599 15.9642 37.1047 16.2014 37.1047 16.4942Z" fill="#029A4D"/>
</svg>
